#!OML:ASF H:\Dans Jumps\Project 1\Capture day 1\Session 1\subject.ASF
:FULLY-SPECIFIED
:DEGREES
136
root 0.429391 16.2623 -14.1625 15.7491 1.30655 -2.49906
lowerback 10.346 -0.558998 0.125376
upperback 5.56148 -0.695919 2.62338
thorax 0.0162927 -0.38174 2.71576
lowerneck -17.4271 0.526171 -1.76313
upperneck 22.5757 1.2132 0.0833153
head 10.0626 0.41306 0.489555
rclavicle 8.15017e-015 1.11319e-014
rhumerus -28.3854 -20.6177 -73.1687
rradius 21.4236
rwrist 37.3912
rhand -17.2818 -25.628
rfingers 7.12502
rthumb 8.96343 -55.4176
lclavicle 8.15017e-015 1.11319e-014
lhumerus -21.1522 10.8891 81.8758
lradius 13.6328
lwrist -4.61275
lhand -23.2759 -2.45394
lfingers 7.12502
lthumb 3.17668 27.5021
rfemur -41.4576 -0.984141 21.64
rtibia 54.626
rfoot -31.1235 -12.915
rtoes -0.135846
lfemur -42.2962 5.18158 -18.0747
ltibia 54.6695
lfoot -27.4619 17.9629
ltoes -9.53855
137
root 0.424987 16.2121 -14.1185 15.8441 1.30245 -2.5369
lowerback 10.4832 -0.528765 0.159705
upperback 5.39124 -0.646509 2.64154
thorax -0.238155 -0.354076 2.71324
lowerneck -17.6871 0.498869 -1.82771
upperneck 22.6883 1.18695 0.13879
head 10.1516 0.400554 0.51825
rclavicle 3.57812e-015 2.5842e-015
rhumerus -27.6963 -20.4101 -73.5399
rradius 21.4907
rwrist 37.2951
rhand -17.4013 -25.5667
rfingers 7.12502
rthumb 8.84815 -55.3612
lclavicle 3.57812e-015 2.5842e-015
lhumerus -20.2845 11.709 81.919
lradius 13.4212
lwrist -5.30882
lhand -23.4311 -2.57842
lfingers 7.12502
lthumb 3.02674 27.3798
rfemur -41.7916 -1.03496 21.7123
rtibia 55.3564
rfoot -31.1079 -12.9947
rtoes -0.150834
lfemur -42.6404 5.15963 -18.0015
ltibia 55.4157
lfoot -27.362 17.8711
ltoes -9.32784
138
root 0.420436 16.1614 -14.0718 15.934 1.28216 -2.55205
lowerback 10.6182 -0.495617 0.1679
upperback 5.20929 -0.595378 2.64918
thorax -0.503379 -0.325836 2.71418
lowerneck -17.9557 0.475574 -1.88652
upperneck 22.8066 1.16458 0.196231
head 10.2446 0.39054 0.547328
rclavicle 1.0635e-014 1.78906e-015
rhumerus -27.0038 -20.1132 -73.9466
rradius 21.6238
rwrist 37.1395
rhand -17.5181 -25.5133
rfingers 7.12502
rthumb 8.73541 -55.3125
lclavicle 1.0635e-014 1.78906e-015
lhumerus -19.4036 12.4294 82.0142
lradius 13.2638
lwrist -5.79231
lhand -23.6836 -2.72068
lfingers 7.12502
lthumb 2.78288 27.2409
rfemur -42.1134 -1.08761 21.7566
rtibia 56.085
rfoot -31.024 -13.0666
rtoes -0.12397
lfemur -42.9598 5.15342 -17.9567
ltibia 56.151
lfoot -27.227 17.7684
ltoes -9.02097
139
root 0.415507 16.1107 -14.0223 16.0164 1.2467 -2.5506
lowerback 10.7493 -0.45773 0.153028
upperback 5.01926 -0.540143 2.65032
thorax -0.774875 -0.295767 2.72073
lowerneck -18.2254 0.453438 -1.94022
upperneck 22.918 1.14339 0.250245
head 10.3355 0.381219 0.574521
rclavicle 1.76918e-014 -1.53064e-014
rhumerus -26.2998 -19.7335 -74.3796
rradius 21.8163
rwrist 36.9163
rhand -17.6489 -25.4545
rfingers 7.12502
rthumb 8.60918 -55.259
lclavicle 1.76918e-014 -1.53064e-014
lhumerus -18.5046 13.0196 82.1694
lradius 13.1688
lwrist -6.08006
lhand -23.9525 -2.81693
lfingers 7.12502
lthumb 2.52319 27.1479
rfemur -42.4121 -1.1352 21.7786
rtibia 56.8015
rfoot -30.8872 -13.1337
rtoes -0.00807891
lfemur -43.2493 5.17031 -17.9328
ltibia 56.8682
lfoot -27.0689 17.6479
ltoes -8.60871
140
root 0.410365 16.0608 -13.9696 16.0895 1.20008 -2.53408
lowerback 10.8694 -0.415742 0.119949
upperback 4.82461 -0.48155 2.64668
thorax -1.04526 -0.264144 2.73185
lowerneck -18.506 0.434628 -1.97945
upperneck 23.0267 1.12657 0.290433
head 10.428 0.373548 0.595082
rclavicle -4.37326e-015 -1.27222e-014
rhumerus -25.5787 -19.2874 -74.8257
rradius 22.0554
rwrist 36.6215
rhand -17.8051 -25.3892
rfingers 7.12502
rthumb 8.45839 -55.1998
lclavicle -4.37326e-015 -1.27222e-014
lhumerus -17.5835 13.4693 82.3846
lradius 13.1277
lwrist -6.22412
lhand -24.2368 -2.94423
lfingers 7.12502
lthumb 2.24865 27.0237
rfemur -42.6775 -1.18197 21.7825
rtibia 57.4937
rfoot -30.6953 -13.2424
rtoes 0.147581
lfemur -43.4984 5.20855 -17.9271
ltibia 57.5573
lfoot -26.8957 17.515
ltoes -8.09262
141
root 0.405044 16.0128 -13.9136 16.1511 1.14977 -2.51814
lowerback 10.9764 -0.37035 0.0844104
upperback 4.6275 -0.418993 2.64629
thorax -1.31119 -0.230509 2.74689
lowerneck -18.7959 0.416783 -2.00775
upperneck 23.1309 1.11251 0.314054
head 10.521 0.36615 0.608351
rclavicle -2.98177e-015 -1.98785e-015
rhumerus -24.8347 -18.7933 -75.2685
rradius 22.3316
rwrist 36.2538
rhand -17.9848 -25.3148
rfingers 7.12502
rthumb 8.28498 -55.1324
lclavicle -2.98177e-015 -1.98785e-015
lhumerus -16.6438 13.7502 82.6651
lradius 13.1492
lwrist -6.25446
lhand -24.505 -3.08903
lfingers 7.12502
lthumb 1.98964 26.8814
rfemur -42.8926 -1.22616 21.786
rtibia 58.1457
rfoot -30.5007 -13.3833
rtoes 0.34518
lfemur -43.7004 5.27065 -17.9203
ltibia 58.2089
lfoot -26.7256 17.4042
ltoes -7.62713
142
root 0.399769 15.9679 -13.854 16.1969 1.1085 -2.5105
lowerback 11.0724 -0.326403 0.0620562
upperback 4.4275 -0.357094 2.65226
thorax -1.5743 -0.197006 2.76081
lowerneck -19.0833 0.397067 -2.04967
upperneck 23.232 1.09841 0.344058
head 10.6125 0.358376 0.62616
rclavicle -7.15625e-015 1.86858e-014
rhumerus -24.0667 -18.2643 -75.6996
rradius 22.6347
rwrist 35.7989
rhand -18.1878 -25.2556
rfingers 7.12502
rthumb 8.08912 -55.0808
lclavicle -7.15625e-015 1.86858e-014
lhumerus -15.6963 13.8451 83.0039
lradius 13.2398
lwrist -6.19495
lhand -24.741 -3.25565
lfingers 7.12502
lthumb 1.76167 26.7168
rfemur -43.0374 -1.27332 21.8014
rtibia 58.7383
rfoot -30.3487 -13.571
rtoes 0.450098
lfemur -43.8396 5.3467 -17.8996
ltibia 58.8073
lfoot -26.5926 17.3498
ltoes -7.46026
143
root 0.394524 15.9277 -13.7904 16.2281 1.07305 -2.52317
lowerback 11.1507 -0.284607 0.0605624
upperback 4.22512 -0.295866 2.66861
thorax -1.83028 -0.163714 2.77343
lowerneck -19.3584 0.376157 -2.10074
upperneck 23.3277 1.08537 0.374112
head 10.6998 0.350356 0.645596
rclavicle 2.78299e-015 -1.53064e-014
rhumerus -23.2675 -17.7413 -76.107
rradius 22.9479
rwrist 35.3114
rhand -18.4076 -25.231
rfingers 7.12502
rthumb 7.8769 -55.0642
lclavicle 2.78299e-015 -1.53064e-014
lhumerus -14.7584 13.7421 83.3891
lradius 13.4168
lwrist -6.03776
lhand -24.9352 -3.43211
lfingers 7.12502
lthumb 1.57411 26.5418
rfemur -43.0993 -1.31166 21.8406
rtibia 59.2487
rfoot -30.2676 -13.8021
rtoes 0.37331
lfemur -43.9048 5.44012 -17.8518
ltibia 59.3339
lfoot -26.5045 17.3785
ltoes -7.66637
